<?xml version="1.0" encoding="utf-8"?>
<!-- Generator: Adobe Illustrator 16.0.0, SVG Export Plug-In . SVG Version: 6.00 Build 0)  -->
<!DOCTYPE svg PUBLIC "-//W3C//DTD SVG 1.1//EN" "http://www.w3.org/Graphics/SVG/1.1/DTD/svg11.dtd">
<svg version="1.1" id="Layer_1" xmlns="http://www.w3.org/2000/svg" xmlns:xlink="http://www.w3.org/1999/xlink" x="0px" y="0px"
	 width="211.149px" height="74.205px" viewBox="0 0 211.149 74.205" enable-background="new 0 0 211.149 74.205"
	 xml:space="preserve">
<g>
	<g>
		<path fill="#87BFF2" d="M211.149,42.536c0-5.184-4.224-9.389-9.435-9.389c-3.526,0-6.597,1.931-8.215,4.785
			c-1.618-2.854-4.688-4.785-8.215-4.785c-5.209,0-9.436,4.205-9.436,9.389c0,2.402,0.912,4.584,2.405,6.246
			c-0.003,0-0.009,0.004-0.009,0.004l12.898,15.206c1.297,1.528,3.418,1.528,4.711,0l4.679-5.514l-3.403-3.47
			c-1.029,0.648-2.24,1.021-3.545,1.021c-3.725,0-6.75-3.082-6.75-6.879c0-3.805,3.025-6.883,6.75-6.883
			c3.734,0,6.759,3.078,6.759,6.883c0,1.395-0.409,2.687-1.103,3.769l3.223,3.283l6.293-7.417l-0.01-0.004
			C210.236,47.12,211.149,44.937,211.149,42.536z"/>
		<path fill="#87BFF2" d="M189.08,49.151c0,2.535,2.014,4.592,4.506,4.592c2.49,0,4.513-2.057,4.513-4.592
			c0-2.541-2.022-4.603-4.513-4.603C191.094,44.549,189.08,46.61,189.08,49.151z"/>
	</g>
	<g>
		<path fill="#6B97BF" d="M45.484,28.462c2.828,0.326,3.074,0.107,3.074-3.131c0-3.244-0.172-3.375-3.102-3.105
			c-1.361,0.125-1.951,0.693-1.807,2.07c0.072,0.695,0.078,1.41-0.002,2.102C43.484,27.815,44.189,28.312,45.484,28.462z"/>
		<path fill="#6B97BF" d="M74.105,33.673c-4.725-0.43-9.268,0.459-13.523,2.637c-1.252,0.643-1.83,1.584-1.824,3.062
			c0.045,10.869,0.09,21.738-0.027,32.605c-0.025,2.393,1.391,2.07,2.838,2.209c1.814,0.174,1.938-0.908,1.922-2.273
			c-0.037-3.188-0.012-6.375-0.012-9.85c0.781,0.328,1.34,0.59,1.916,0.801c2.969,1.09,6,1.744,9.189,1.312
			c3.328-0.451,5.584-2.34,5.707-5.68c0.229-6.252,0.275-12.529-0.027-18.775C80.076,35.831,78.023,34.028,74.105,33.673z
			 M75.723,55.13c-0.086,3.701-1.381,4.857-5.105,4.756c-0.447-0.012-0.9-0.016-1.34-0.09c-5.299-0.881-5.799-1.473-5.799-6.809
			c0-1.406,0-2.812,0-4.221c0-2.428,0.057-4.859-0.023-7.287c-0.041-1.219,0.398-2.004,1.535-2.297
			c2.027-0.523,4.059-1.129,6.127-1.391c2.256-0.283,3.758,0.93,4.309,3.188c0.238,0.98,0.352,2.016,0.357,3.027
			C75.805,47.714,75.811,51.423,75.723,55.13z"/>
		<path fill="#6B97BF" d="M52.861,59.638c-3.232,0.621-4.346-0.334-4.352-3.66c-0.012-6.77-0.027-13.541,0.014-20.311
			c0.008-1.418-0.391-2.27-1.953-2.045c-1.246,0.18-2.91-0.416-2.805,1.994c0.164,3.762,0.043,7.535,0.049,11.303
			c0,3.77-0.08,7.539,0.018,11.305c0.137,5.191,5.957,8.197,10.369,5.418c1.297-0.816,0.869-1.936,0.562-3.064
			C54.471,59.505,53.822,59.454,52.861,59.638z"/>
		<path fill="#6B97BF" d="M38.023,59.581c-3.674,0.586-4.551-0.201-4.564-3.992c-0.02-5.113-0.004-10.227-0.006-15.34
			c0-5.436,0.02-10.867-0.025-16.301c-0.006-0.641-0.285-1.785-0.566-1.828c-1.16-0.17-2.424-0.193-3.529,0.131
			c-0.416,0.121-0.715,1.34-0.719,2.061c-0.045,9.715-0.041,19.432-0.021,29.148c0.004,1.785,0.004,3.586,0.217,5.355
			c0.576,4.816,6.178,7.393,10.369,4.834c1.229-0.75,0.922-1.789,0.619-2.869C39.535,59.851,39.117,59.407,38.023,59.581z"/>
		<path fill="#6B97BF" d="M11.869,33.657c-2.346,0.354-4.623,1.178-7.078,1.826c0-3.805-0.029-7.684,0.018-11.561
			c0.016-1.377-0.285-2.262-1.912-2.072C1.498,22.015-0.018,21.644,0,24.026c0.092,12.08,0.072,24.16,0.01,36.24
			C0,61.999,0.699,62.851,2.258,63.274c4.127,1.121,8.338,1.383,12.531,0.756c4.352-0.648,6.658-3.066,6.883-7.41
			c0.256-4.965,0.246-9.957,0.059-14.926C21.498,35.476,18.068,32.72,11.869,33.657z M17.049,55.169
			c-0.088,3.338-1.691,4.934-4.984,5.031c-1.961,0.059-3.938-0.254-5.902-0.439c-1.084-0.104-1.428-0.734-1.395-1.832
			c0.078-2.68,0.025-5.365,0.025-8.049c0-2.746-0.109-5.5,0.066-8.236c0.053-0.822,0.734-2.033,1.426-2.301
			c1.934-0.752,3.998-1.348,6.057-1.553c2.736-0.271,4.576,1.412,4.664,4.168C17.146,46.358,17.166,50.769,17.049,55.169z"/>
		<path fill="#6B97BF" d="M102.936,33.677c-4.727-0.441-9.268,0.455-13.527,2.615c-1.244,0.631-1.861,1.553-1.855,3.043
			c0.043,10.934,0.076,21.865-0.018,32.797c-0.02,2.332,1.461,1.895,2.793,2.047c1.58,0.18,1.984-0.619,1.961-2.037
			c-0.053-3.256-0.018-6.512-0.018-10.064c3.752,1.592,7.277,2.605,11.07,2.102c3.348-0.441,5.605-2.303,5.734-5.645
			c0.242-6.252,0.281-12.529-0.012-18.775C108.881,35.858,106.832,34.04,102.936,33.677z M104.506,55.47
			c-0.07,3.254-1.428,4.449-4.67,4.422c-0.383-0.004-0.797,0.072-1.145-0.045c-2.029-0.686-4.352-1.029-5.934-2.293
			c-0.834-0.666-0.406-2.961-0.473-4.523c-0.059-1.404-0.012-2.812-0.012-4.221c0-2.43,0.055-4.859-0.025-7.287
			c-0.037-1.201,0.344-2.031,1.496-2.326c2.09-0.533,4.184-1.16,6.316-1.404c2.18-0.252,3.584,0.969,4.158,3.143
			c0.176,0.674,0.299,1.381,0.303,2.074C104.547,47.161,104.6,51.317,104.506,55.47z"/>
		<path fill="#6B97BF" d="M163.865,61.794c-2.207-3.812-4.42-7.631-6.797-11.34c-0.861-1.346-0.758-2.299,0.037-3.586
			c2.25-3.641,4.379-7.354,6.514-11.062c0.969-1.684,0.545-2.338-1.346-2.32c-1.793,0.018-3.061,0.613-3.939,2.373
			c-1.59,3.176-3.449,6.215-5.359,9.598c-1.9-3.418-3.732-6.539-5.377-9.754c-0.736-1.438-1.744-2.168-3.277-2.137
			c-0.785,0.016-1.566,0.279-2.35,0.432c0.197,0.711,0.262,1.498,0.617,2.117c2.193,3.822,4.5,7.58,6.645,11.432
			c0.338,0.605,0.311,1.711-0.02,2.34c-1.152,2.205-2.512,4.301-3.791,6.438c-1.146,1.918-2.369,3.799-3.389,5.783
			c-0.271,0.529-0.166,1.791,0.191,2.006c1.395,0.834,4.072-0.197,4.91-1.688c1.877-3.336,3.75-6.676,5.832-10.381
			c2.004,3.5,3.922,6.654,5.629,9.916c0.852,1.627,1.975,2.434,3.76,2.305c0.672-0.049,1.336-0.23,2.004-0.35
			C164.203,63.202,164.213,62.396,163.865,61.794z"/>
		<path fill="#6B97BF" d="M134.949,35.265c-0.699-0.514-1.578-1.035-2.402-1.084c-3.352-0.197-6.752-0.557-10.064-0.203
			c-3.729,0.398-6.389,2.811-6.543,6.656c-0.219,5.465-0.158,10.982,0.369,16.422c0.361,3.736,2.945,6.102,6.807,6.805
			c4.473,0.812,8.904,0.496,13.295-0.496c0.48-0.109,1.096-0.83,1.166-1.336c0.32-2.287-0.291-2.764-2.67-2.496
			c-2.529,0.283-5.074,0.719-7.602,0.664c-4.83-0.102-7.223-2.896-6.893-7.971c1.309,0,2.523,0.109,3.711-0.021
			c2.908-0.32,5.84-0.586,8.695-1.184c3.002-0.627,4.789-2.652,4.965-5.779C137.986,41.612,138.451,37.837,134.949,35.265z
			 M129.312,47.923c-2.873,0.463-5.809,0.531-8.986,0.797c0-2.537-0.107-4.643,0.029-6.732c0.16-2.428,1.592-4.09,4-4.482
			c1.609-0.264,3.33-0.287,4.934-0.021c2.9,0.482,3.969,2.037,3.973,5.148C133.268,46.079,132.42,47.423,129.312,47.923z"/>
	</g>
	<path fill="#D0E4F2" d="M167.582,0H59.689C59.16,0,58.73,0.429,58.73,0.959v17.734c0,0.53,0.43,0.959,0.959,0.959h48.654
		l4.758,8.566c0,0,0.223,0.354,0.532,0.354c0.312,0,0.534-0.354,0.534-0.354l4.759-8.566h48.655c0.53,0,0.959-0.429,0.959-0.959
		V0.959C168.541,0.429,168.112,0,167.582,0z"/>
	<g>
		<path fill="#FFFFFF" d="M72.798,12.94l-1.16-4.208h-0.029L70.47,12.94h-1.48l-1.588-6.316c-0.041-0.12-0.09-0.16-0.221-0.18
			l-0.549-0.101l0.1-0.64h2.729v0.64l-0.869,0.09l1.219,5.327h0.039l1.25-4.647h1.229l1.279,4.708h0.051l1.229-5.388l-0.879-0.09
			l0.1-0.64h2.49v0.64l-0.5,0.09c-0.141,0.03-0.191,0.051-0.23,0.19l-1.529,6.316H72.798z"/>
		<path fill="#FFFFFF" d="M76.911,12.94v-0.63l0.6-0.08c0.141-0.02,0.16-0.05,0.16-0.199V8.812c0-0.109-0.029-0.18-0.131-0.21
			l-0.549-0.189l0.1-0.64h1.729v4.258c0,0.159,0.01,0.18,0.16,0.199l0.59,0.07v0.64H76.911z M78.12,6.794
			c-0.479,0-0.75-0.27-0.75-0.75c0-0.47,0.271-0.729,0.75-0.729c0.471,0,0.75,0.26,0.75,0.729C78.87,6.524,78.591,6.794,78.12,6.794
			z"/>
		<path fill="#FFFFFF" d="M83.108,12.94v-0.63l0.57-0.09l-1.09-1.909l-0.719,0.8v0.92c0,0.159,0.01,0.18,0.16,0.199l0.559,0.07v0.64
			h-2.598v-0.63l0.568-0.08c0.141-0.02,0.16-0.05,0.16-0.199V6.434c0-0.109-0.029-0.18-0.129-0.209l-0.57-0.19l0.1-0.64h1.75v4.588
			l2.008-2.209h1.221v0.64l-0.551,0.109c-0.129,0.021-0.16,0.051-0.25,0.15L83.47,9.582l1.418,2.469
			c0.08,0.13,0.131,0.15,0.301,0.17l0.479,0.09v0.63H83.108z"/>
		<path fill="#FFFFFF" d="M85.931,12.94v-0.63l0.6-0.08c0.141-0.02,0.16-0.05,0.16-0.199V8.812c0-0.109-0.029-0.18-0.131-0.21
			l-0.549-0.189l0.1-0.64h1.729v4.258c0,0.159,0.01,0.18,0.16,0.199l0.59,0.07v0.64H85.931z M87.14,6.794
			c-0.479,0-0.75-0.27-0.75-0.75c0-0.47,0.271-0.729,0.75-0.729c0.471,0,0.75,0.26,0.75,0.729C87.89,6.524,87.61,6.794,87.14,6.794z
			"/>
		<path fill="#FFFFFF" d="M89.14,15.06v-0.65l0.41-0.06c0.141-0.02,0.17-0.05,0.17-0.21V8.812c0-0.109-0.029-0.17-0.129-0.21
			L89.04,8.413l0.1-0.64h1.49l0.09,0.56l0.029,0.01c0.48-0.38,1.07-0.67,1.76-0.67c1.129,0,1.898,0.71,1.898,2.52
			c0,1.289-0.41,2.868-2.059,2.868c-0.551,0-1.07-0.19-1.5-0.52v1.599c0,0.16,0.021,0.19,0.17,0.2l0.98,0.08v0.64H89.14z
			 M90.87,11.611c0.299,0.27,0.729,0.529,1.229,0.529c0.799,0,1.129-0.729,1.129-1.879c0-1.229-0.459-1.648-1.049-1.648
			c-0.539,0-1.059,0.329-1.309,0.529V11.611z"/>
		<path fill="#FFFFFF" d="M99.538,12.591c-0.549,0.279-1.189,0.47-1.918,0.47c-1.859,0-2.469-1.189-2.469-2.729
			c0-1.81,1.049-2.659,2.359-2.659c1.258,0,2.117,0.67,2.117,2.409c0,0.13-0.01,0.39-0.029,0.58H96.37
			c0.051,0.929,0.41,1.479,1.379,1.479c0.49,0,0.871-0.1,1.471-0.35L99.538,12.591z M98.479,9.832c0-0.979-0.449-1.289-0.99-1.289
			c-0.568,0-1.059,0.38-1.109,1.289H98.479z"/>
		<path fill="#FFFFFF" d="M104.157,12.94l-0.09-0.59l-0.059-0.01c-0.439,0.439-0.939,0.72-1.699,0.72c-1.15,0-1.91-0.74-1.91-2.608
			c0-1.989,0.939-2.779,2.1-2.779c0.6,0,1.1,0.17,1.479,0.45V6.424c0-0.1-0.029-0.17-0.129-0.199l-0.57-0.19l0.1-0.64h1.719v6.637
			c0,0.159,0.012,0.18,0.16,0.199l0.49,0.07v0.64H104.157z M103.948,9.072c-0.289-0.239-0.719-0.479-1.16-0.479
			c-0.859,0-1.199,0.76-1.199,1.829c0,1.229,0.371,1.699,1.041,1.699c0.488,0,0.969-0.3,1.318-0.67V9.072z"/>
		<path fill="#FFFFFF" d="M106.229,12.94v-0.63l0.6-0.08c0.141-0.02,0.16-0.05,0.16-0.199V8.812c0-0.109-0.029-0.18-0.129-0.21
			l-0.551-0.189l0.102-0.64h1.729v4.258c0,0.159,0.01,0.18,0.16,0.199l0.59,0.07v0.64H106.229z M107.44,6.794
			c-0.48,0-0.75-0.27-0.75-0.75c0-0.47,0.27-0.729,0.75-0.729c0.469,0,0.748,0.26,0.748,0.729
			C108.188,6.524,107.909,6.794,107.44,6.794z"/>
		<path fill="#FFFFFF" d="M112.778,12.94l-0.1-0.59l-0.031-0.01c-0.439,0.42-0.979,0.72-1.758,0.72c-1.26,0-1.43-0.859-1.43-1.419
			c0-1,0.619-1.479,1.84-1.579l1.27-0.101v-0.51c0-0.63-0.111-0.97-0.881-0.97c-0.549,0-0.92,0.04-0.92,0.73l-1.078-0.101
			c0-1.279,1.168-1.439,2.018-1.439c1.449,0,1.99,0.41,1.99,1.789v2.569c0,0.159,0.01,0.18,0.16,0.199l0.488,0.07v0.64H112.778z
			 M112.569,10.691l-0.951,0.08c-0.748,0.07-0.979,0.28-0.979,0.76s0.23,0.64,0.639,0.64c0.49,0,0.99-0.3,1.291-0.6V10.691z"/>
		<path fill="#FFFFFF" d="M117.011,10.412c0-1.659,0.83-2.739,2.588-2.739c1.76,0,2.439,1.09,2.439,2.609
			c0,1.679-0.779,2.778-2.539,2.778C117.671,13.061,117.011,11.941,117.011,10.412z M120.849,10.342c0-1.27-0.43-1.799-1.279-1.799
			s-1.359,0.529-1.359,1.809s0.459,1.859,1.318,1.859C120.378,12.211,120.849,11.651,120.849,10.342z"/>
		<path fill="#FFFFFF" d="M122.739,12.94v-0.649l0.611-0.061c0.139-0.01,0.158-0.05,0.158-0.199V8.692c0-0.06,0-0.1-0.08-0.1h-0.699
			V7.773h0.779v-0.67c0-1.249,0.65-1.819,1.949-1.819c0.859,0,1.609,0.21,1.619,1.29l-1.068,0.13c0-0.52-0.191-0.62-0.6-0.62
			c-0.641,0-0.75,0.36-0.75,0.92v0.669c0,0.07,0,0.101,0.08,0.101h1.609v0.819h-1.689v3.408c0,0.16,0.01,0.189,0.16,0.2l1.189,0.1
			v0.64H122.739z"/>
		<path fill="#FFFFFF" d="M133.038,7.663l-0.141-0.829c-0.02-0.11-0.039-0.16-0.1-0.19c-0.119-0.069-0.43-0.159-0.879-0.159
			c-0.92,0-1.369,0.409-1.369,1.039c0,0.76,0.699,0.979,1.479,1.22c0.98,0.3,2.09,0.64,2.09,2.139c0,1.589-1.24,2.179-2.709,2.179
			c-0.91,0-1.84-0.23-2.18-0.39v-1.76h0.85l0.201,0.9c0.029,0.13,0.039,0.159,0.17,0.199c0.139,0.04,0.52,0.15,1.018,0.15
			c0.939,0,1.49-0.36,1.49-1.13c0-0.8-0.689-1.029-1.459-1.249c-0.99-0.29-2.109-0.569-2.109-2.089c0-1.469,1.129-2.119,2.578-2.119
			c0.85,0,1.551,0.22,1.93,0.37v1.799L133.038,7.663z"/>
		<path fill="#FFFFFF" d="M139.288,12.591c-0.551,0.279-1.189,0.47-1.92,0.47c-1.857,0-2.469-1.189-2.469-2.729
			c0-1.81,1.051-2.659,2.359-2.659c1.26,0,2.119,0.67,2.119,2.409c0,0.13-0.01,0.39-0.029,0.58h-3.229
			c0.049,0.929,0.408,1.479,1.379,1.479c0.49,0,0.869-0.1,1.469-0.35L139.288,12.591z M138.228,9.832
			c0-0.979-0.449-1.289-0.988-1.289c-0.57,0-1.061,0.38-1.109,1.289H138.228z"/>
		<path fill="#FFFFFF" d="M143.358,12.94l-0.1-0.59l-0.031-0.01c-0.439,0.42-0.979,0.72-1.758,0.72c-1.26,0-1.43-0.859-1.43-1.419
			c0-1,0.619-1.479,1.84-1.579l1.27-0.101v-0.51c0-0.63-0.111-0.97-0.881-0.97c-0.549,0-0.92,0.04-0.92,0.73l-1.078-0.101
			c0-1.279,1.168-1.439,2.018-1.439c1.449,0,1.99,0.41,1.99,1.789v2.569c0,0.159,0.01,0.18,0.16,0.199l0.488,0.07v0.64H143.358z
			 M143.149,10.691l-0.951,0.08c-0.748,0.07-0.979,0.28-0.979,0.76s0.23,0.64,0.639,0.64c0.49,0,0.99-0.3,1.291-0.6V10.691z"/>
		<path fill="#FFFFFF" d="M145.45,12.94v-0.649l0.479-0.061c0.141-0.02,0.16-0.05,0.16-0.199V8.812c0-0.109-0.029-0.17-0.129-0.21
			l-0.551-0.189l0.102-0.64h1.488l0.109,0.729l0.031,0.01c0.33-0.43,0.799-0.84,1.469-0.84c0.23,0,0.6,0.04,0.779,0.091v1.639
			l-0.9-0.04l-0.119-0.619c-0.01-0.091-0.029-0.11-0.119-0.11c-0.381,0-0.811,0.33-1.01,0.52v2.868c0,0.16,0.02,0.19,0.17,0.2
			l0.939,0.08v0.64H145.45z"/>
		<path fill="#FFFFFF" d="M154.188,12.61c-0.42,0.26-1.1,0.45-1.789,0.45c-1.75,0-2.51-1.109-2.51-2.639
			c0-1.879,1.109-2.749,2.66-2.749c0.758,0,1.369,0.21,1.629,0.36v1.419l-0.83-0.04l-0.121-0.659c-0.01-0.07-0.029-0.11-0.109-0.14
			c-0.129-0.051-0.369-0.091-0.619-0.091c-0.77,0-1.41,0.48-1.41,1.81c0,1.359,0.631,1.809,1.5,1.809c0.5,0,0.949-0.14,1.27-0.31
			L154.188,12.61z"/>
		<path fill="#FFFFFF" d="M158.019,12.94v-0.63l0.469-0.069c0.16-0.021,0.17-0.08,0.17-0.21V9.712c0-0.47-0.049-1.099-0.709-1.099
			c-0.49,0-1,0.279-1.369,0.539v2.879c0,0.159,0.01,0.18,0.16,0.199l0.529,0.07v0.64h-2.479v-0.63l0.479-0.08
			c0.141-0.02,0.16-0.05,0.16-0.199V6.434c0-0.109-0.029-0.18-0.129-0.209l-0.57-0.19l0.1-0.64h1.74v2.918
			c0.5-0.339,1.029-0.64,1.729-0.64c1.08,0,1.51,0.71,1.51,1.81v2.549c0,0.159,0.01,0.18,0.16,0.199l0.549,0.07v0.64H158.019z"/>
	</g>
</g>
</svg>
